<svg width="150" height="150" viewBox="0 0 64 64" fill="none" xmlns="http://www.w3.org/2000/svg" role="img" aria-label="SellHi — people in a clockwise exchange cycle, rising high">
  <g fill="#086385">
    <circle cx="27" cy="31" r="1.7"/><path d="M24.4 36 C 24.4 32.7 29.6 32.7 29.6 36 Z"/>
    <circle cx="32" cy="30" r="1.9"/><path d="M28.9 35.5 C 28.9 32 35.1 32 35.1 35.5 Z"/>
    <circle cx="37" cy="31" r="1.7"/><path d="M34.4 36 C 34.4 32.7 39.6 32.7 39.6 36 Z"/>
  </g>
  <path d="M33 20 A 14 14 0 0 1 40 46" stroke="#008080" stroke-width="2.2" stroke-linecap="round" fill="none"/>
  <path d="M43.5 44 L40 47 L36.5 44.5" stroke="#008080" stroke-width="2.2" stroke-linecap="round" stroke-linejoin="round" fill="none"/>
  <path d="M31 48 A 14 14 0 0 1 24 22" stroke="#008080" stroke-width="2.2" stroke-linecap="round" fill="none"/>
  <path d="M20.5 24 L24 21 L27.5 23.5" stroke="#008080" stroke-width="2.2" stroke-linecap="round" stroke-linejoin="round" fill="none"/>
  <path d="M32 22 L32 9" stroke="#008080" stroke-width="2.2" stroke-linecap="round" fill="none"/>
  <path d="M28 13 L32 8.5 L36 13" stroke="#008080" stroke-width="2.2" stroke-linecap="round" stroke-linejoin="round" fill="none"/>
</svg>
