<svg width="140" height="140" viewBox="0 0 64 64" fill="none" xmlns="http://www.w3.org/2000/svg" role="img" aria-label="SellHi — people network with central crowned S">
  <g stroke="#086385" stroke-width="1" opacity="0.55" stroke-linecap="round">
    <line x1="32" y1="23" x2="32" y2="15"/>
    <line x1="24.5" y1="28.4" x2="16.7" y2="25.6"/>
    <line x1="39.5" y1="28.4" x2="47.3" y2="25.6"/>
    <line x1="27.6" y1="37.5" x2="21.9" y2="44.95"/>
    <line x1="36.4" y1="37.5" x2="42.1" y2="44.95"/>
  </g>
  <g stroke="#086385" stroke-width="1.4" fill="none">
    <circle cx="32" cy="10" r="4.5"/><circle cx="12" cy="24" r="4.5"/><circle cx="52" cy="24" r="4.5"/><circle cx="19" cy="49" r="4.5"/><circle cx="45" cy="49" r="4.5"/>
  </g>
  <g fill="#086385">
    <circle cx="32" cy="9" r="1.3"/><path d="M29.7 13.2 C 29.7 10.6 34.3 10.6 34.3 13.2 Z"/>
    <circle cx="12" cy="23" r="1.3"/><path d="M9.7 27.2 C 9.7 24.6 14.3 24.6 14.3 27.2 Z"/>
    <circle cx="52" cy="23" r="1.3"/><path d="M49.7 27.2 C 49.7 24.6 54.3 24.6 54.3 27.2 Z"/>
    <circle cx="19" cy="48" r="1.3"/><path d="M16.7 52.2 C 16.7 49.6 21.3 49.6 21.3 52.2 Z"/>
    <circle cx="45" cy="48" r="1.3"/><path d="M42.7 52.2 C 42.7 49.6 47.3 49.6 47.3 52.2 Z"/>
  </g>
  <path d="M32 23 C 25 24.3, 25 30.2, 32 31.5 C 39 32.8, 39 38.7, 32 40" stroke="#008080" stroke-width="2.6" stroke-linecap="round" fill="none"/>
  <path d="M28 22 L32 17.5 L36 22" stroke="#008080" stroke-width="2.6" stroke-linecap="round" stroke-linejoin="round" fill="none"/>
</svg>
