<svg width="140" height="140" viewBox="0 0 64 64" fill="none" xmlns="http://www.w3.org/2000/svg" role="img" aria-label="SellHi — people globe with centered crowned S">
  <g fill="#086385">
    <circle cx="23" cy="21" r="1.6"/><path d="M20.3 26.6 C 20.3 23.1 25.7 23.1 25.7 26.6 Z"/>
    <circle cx="41" cy="21" r="1.6"/><path d="M38.3 26.6 C 38.3 23.1 43.7 23.1 43.7 26.6 Z"/>
    <circle cx="14" cy="33" r="1.35"/><path d="M11.7 37.9 C 11.7 34.9 16.3 34.9 16.3 37.9 Z"/>
    <circle cx="50" cy="33" r="1.35"/><path d="M47.7 37.9 C 47.7 34.9 52.3 34.9 52.3 37.9 Z"/>
    <circle cx="23" cy="45" r="1.6"/><path d="M20.3 50.6 C 20.3 47.1 25.7 47.1 25.7 50.6 Z"/>
    <circle cx="41" cy="45" r="1.6"/><path d="M38.3 50.6 C 38.3 47.1 43.7 47.1 43.7 50.6 Z"/>
    <circle cx="32" cy="50" r="1.6"/><path d="M29.3 55.6 C 29.3 52.1 34.7 52.1 34.7 55.6 Z"/>
  </g>
  <path d="M32 24 C 24 25.5, 24 33.5, 32 35 C 40 36.5, 40 44.5, 32 46" stroke="#008080" stroke-width="2.4" stroke-linecap="round" fill="none"/>
  <path d="M28 22.5 L32 18 L36 22.5" stroke="#008080" stroke-width="2.4" stroke-linecap="round" stroke-linejoin="round" fill="none"/>
</svg>
