<svg width="120" height="120" viewBox="0 0 64 64" fill="none" xmlns="http://www.w3.org/2000/svg" role="img" aria-label="SellHi — Ganesha derived (faithful)">
  <circle cx="32" cy="6" r="1.3" fill="#008080"/>
  <path d="M32 8 C 29.5 11.5, 29.5 15, 32 16.5 C 34.5 15, 34.5 11.5, 32 8 Z" fill="#008080"/>
  <path d="M26 20 C 27 16, 37 16, 38 20" stroke="#008080" stroke-width="2" stroke-linecap="round" fill="none"/>
  <path d="M23 26 C 23 19, 41 19, 41 26" stroke="#A9D6D6" stroke-width="1.4" fill="none"/>
  <path d="M24 25 C 15 24, 13 33, 19 39" stroke="#A9D6D6" stroke-width="1.4" fill="none"/>
  <path d="M40 25 C 49 24, 51 33, 45 39" stroke="#A9D6D6" stroke-width="1.4" fill="none"/>
  <circle cx="32" cy="43" r="11" stroke="#A9D6D6" stroke-width="1.3"/>
  <ellipse cx="32" cy="43" rx="4.5" ry="11" stroke="#A9D6D6" stroke-width="0.9"/>
  <line x1="21" y1="43" x2="43" y2="43" stroke="#A9D6D6" stroke-width="0.9"/>
  <path d="M34 25 C 33 31, 24 30, 23 37 C 22.5 42, 29 44, 33 39" stroke="#008080" stroke-width="4" stroke-linecap="round" fill="none"/>
  <circle cx="45" cy="39" r="2.4" fill="#008080"/>
</svg>
